<?xml version="1.0" encoding="UTF-8" standalone="no"?>
<!DOCTYPE svg PUBLIC "-//W3C//DTD SVG 1.1//EN" "http://www.w3.org/Graphics/SVG/1.1/DTD/svg11.dtd">
<svg xmlns="http://www.w3.org/2000/svg" version="1.1" viewBox="0.00 0.00 1280.00 411.00">
<path fill="#f8b500" d="
  M 122.14 127.86
  L 122.30 100.60
  A 1.07 1.06 -15.3 0 1 122.83 99.68
  L 147.47 85.26
  A 1.11 1.09 44.5 0 1 148.56 85.26
  L 172.96 99.41
  A 1.44 1.43 14.9 0 1 173.67 100.63
  L 173.98 127.97
  A 1.11 1.09 -75.7 0 0 174.53 128.91
  L 197.59 142.10
  A 2.30 2.29 -75.2 0 1 198.75 144.10
  L 198.75 170.72
  Q 198.75 171.35 199.29 171.67
  L 221.89 185.00
  Q 222.13 185.14 222.22 185.41
  L 222.32 185.72
  A 1.01 1.00 -84.5 0 1 220.87 186.92
  L 197.91 173.68
  Q 197.47 173.43 197.03 173.68
  L 174.90 186.50
  A 1.80 1.80 0.0 0 0 174.00 188.06
  L 174.00 213.01
  A 1.88 1.87 -75.2 0 0 174.94 214.64
  Q 185.78 220.98 196.63 227.06
  Q 198.03 227.84 198.00 229.01
  A 1.15 1.15 0.0 0 1 196.27 229.97
  L 173.23 216.64
  Q 172.86 216.42 172.49 216.63
  L 149.78 229.63
  A 1.07 1.06 -15.3 0 0 149.25 230.55
  L 149.25 255.59
  A 2.72 2.71 -75.2 0 0 150.62 257.95
  L 172.35 270.33
  A 1.52 1.51 25.9 0 1 173.01 272.22
  Q 172.54 273.37 171.48 272.75
  Q 160.18 266.17 148.88 259.57
  Q 147.95 259.03 147.01 259.57
  L 125.15 272.27
  A 1.55 1.52 75.2 0 0 124.39 273.60
  L 124.54 299.45
  A 3.15 3.15 0.0 0 1 122.99 302.18
  L 100.53 315.36
  A 1.34 1.32 -48.3 0 1 99.32 315.44
  Q 97.06 314.45 99.42 313.11
  Q 110.54 306.82 121.47 300.62
  A 1.56 1.56 0.0 0 0 122.25 299.27
  L 122.25 273.18
  Q 122.25 272.63 121.78 272.36
  L 99.41 259.47
  Q 98.88 259.16 98.35 259.47
  L 75.22 272.99
  A 0.52 0.50 46.1 0 1 74.68 272.97
  Q 73.55 272.23 73.65 271.42
  Q 73.71 270.85 74.63 270.31
  Q 85.96 263.71 97.40 257.32
  Q 97.75 257.13 97.75 256.73
  L 97.75 230.52
  A 0.91 0.91 0.0 0 0 97.29 229.73
  L 74.74 216.75
  Q 74.24 216.47 73.75 216.74
  Q 62.42 223.11 51.27 229.68
  Q 50.65 230.04 50.15 230.00
  Q 48.99 229.88 49.09 228.60
  A 1.32 1.31 -13.4 0 1 49.73 227.57
  L 72.64 214.30
  Q 73.14 214.01 73.15 213.43
  L 73.30 188.03
  A 1.69 1.68 15.3 0 0 72.47 186.58
  L 50.15 173.64
  A 1.28 1.27 -45.2 0 0 48.85 173.65
  Q 38.37 179.90 27.62 186.16
  Q 26.27 186.95 25.07 186.70
  A 0.89 0.89 0.0 0 1 24.81 185.06
  L 48.04 171.68
  Q 48.47 171.43 48.47 170.95
  L 48.83 143.54
  A 1.41 1.40 75.4 0 1 49.53 142.34
  L 73.07 128.67
  A 2.07 2.06 -44.8 0 1 75.14 128.67
  L 97.97 141.82
  A 1.38 1.38 0.0 0 0 99.35 141.82
  L 121.45 129.04
  A 1.40 1.38 -15.1 0 0 122.14 127.86
  Z
  M 171.33 101.17
  L 148.62 88.13
  A 1.01 1.00 -44.5 0 0 147.63 88.13
  L 125.73 100.75
  A 2.05 2.03 -10.8 0 0 124.73 102.20
  C 123.54 110.01 124.56 119.18 124.52 127.01
  A 2.50 2.49 15.0 0 0 125.77 129.17
  L 147.26 141.55
  A 1.63 1.61 44.7 0 0 148.87 141.55
  L 171.00 128.77
  A 0.90 0.90 0.0 0 0 171.45 127.99
  L 171.67 101.76
  A 0.68 0.66 -75.8 0 0 171.33 101.17
  Z
  M 196.25 145.34
  A 1.92 1.92 0.0 0 0 195.30 143.68
  L 173.89 131.14
  A 1.92 1.92 0.0 0 0 171.95 131.13
  L 150.44 143.64
  A 1.92 1.92 0.0 0 0 149.48 145.31
  L 149.54 170.24
  A 1.92 1.92 0.0 0 0 150.48 171.89
  L 171.76 184.43
  A 1.92 1.92 0.0 0 0 173.70 184.43
  L 195.30 171.78
  A 1.92 1.92 0.0 0 0 196.25 170.12
  L 196.25 145.34
  Z
  M 146.50 144.67
  A 1.17 1.17 0.0 0 0 145.92 143.65
  L 124.00 130.98
  A 1.17 1.17 0.0 0 0 122.82 130.98
  L 100.33 143.99
  A 1.17 1.17 0.0 0 0 99.75 145.00
  L 99.75 170.52
  A 1.17 1.17 0.0 0 0 100.33 171.53
  L 122.88 184.71
  A 1.17 1.17 0.0 0 0 124.06 184.71
  L 145.93 171.77
  A 1.17 1.17 0.0 0 0 146.50 170.76
  L 146.50 144.67
  Z
  M 171.50 187.58
  A 1.20 1.20 0.0 0 0 170.90 186.54
  L 148.80 173.84
  A 1.20 1.20 0.0 0 0 147.60 173.84
  L 125.35 186.63
  A 1.20 1.20 0.0 0 0 124.75 187.67
  L 124.75 213.55
  A 1.20 1.20 0.0 0 0 125.35 214.59
  L 147.47 227.50
  A 1.20 1.20 0.0 0 0 148.69 227.49
  L 170.91 214.43
  A 1.20 1.20 0.0 0 0 171.50 213.39
  L 171.50 187.58
  Z
  M 122.06 187.65
  A 1.38 1.38 0.0 0 0 121.37 186.45
  L 99.32 173.75
  A 1.38 1.38 0.0 0 0 97.94 173.75
  L 75.92 186.56
  A 1.38 1.38 0.0 0 0 75.23 187.78
  L 75.58 213.45
  A 1.38 1.38 0.0 0 0 76.26 214.62
  L 98.15 227.38
  A 1.38 1.38 0.0 0 0 99.53 227.38
  L 121.28 214.82
  A 1.38 1.38 0.0 0 0 121.97 213.63
  L 122.06 187.65
  Z"
/>
<path fill="#000000" d="
  M 459.14 176.60
  A 0.61 0.61 0.0 0 0 458.07 176.33
  C 447.80 188.84 428.17 186.21 418.25 175.00
  C 406.16 161.34 407.79 136.05 422.86 125.66
  C 433.95 118.01 447.72 118.10 457.84 127.58
  A 0.54 0.54 0.0 0 0 458.75 127.18
  L 458.75 91.62
  A 0.87 0.87 0.0 0 1 459.63 90.75
  L 474.93 90.94
  A 0.80 0.80 0.0 0 1 475.72 91.74
  L 475.82 181.69
  A 1.28 1.28 0.0 0 1 474.55 182.97
  Q 468.15 183.01 461.74 183.14
  C 458.03 183.21 459.60 178.74 459.14 176.60
  Z
  M 443.7560 170.3296
  A 18.05 16.48 89.6 0 0 460.1096 152.1649
  A 18.05 16.48 89.6 0 0 443.5040 134.2304
  A 18.05 16.48 89.6 0 0 427.1504 152.3951
  A 18.05 16.48 89.6 0 0 443.7560 170.3296
  Z"
/>
<path fill="#000000" d="
  M 351.30 96.25
  L 371.67 96.25
  A 1.01 1.01 0.0 0 1 372.62 96.91
  L 403.65 181.64
  A 1.01 1.01 0.0 0 1 402.70 183.00
  L 386.71 183.00
  A 1.01 1.01 0.0 0 1 385.75 182.32
  L 379.99 165.68
  A 1.01 1.01 0.0 0 0 379.03 165.00
  L 344.00 165.00
  A 1.01 1.01 0.0 0 0 343.05 165.67
  L 337.10 182.33
  A 1.01 1.01 0.0 0 1 336.15 183.00
  L 320.14 183.00
  A 1.01 1.01 0.0 0 1 319.19 181.64
  L 350.36 96.91
  A 1.01 1.01 0.0 0 1 351.30 96.25
  Z
  M 348.79 148.84
  A 1.00 1.00 0.0 0 0 349.73 150.17
  L 373.35 150.17
  A 1.00 1.00 0.0 0 0 374.29 148.84
  L 362.48 115.08
  A 1.00 1.00 0.0 0 0 360.60 115.08
  L 348.79 148.84
  Z"
/>
<path fill="#000000" d="
  M 968.35 149.04
  A 0.81 0.81 0.0 0 0 969.88 149.05
  L 987.54 97.28
  A 1.52 1.52 0.0 0 1 988.98 96.25
  L 1012.19 96.25
  A 1.25 1.24 87.5 0 1 1013.43 97.39
  L 1020.38 181.63
  A 1.26 1.26 0.0 0 1 1019.12 183.00
  L 1003.63 183.00
  A 1.03 1.01 87.5 0 1 1002.62 182.06
  L 997.30 120.20
  A 0.62 0.62 0.0 0 0 996.10 120.06
  L 975.66 181.40
  A 2.33 2.33 0.0 0 1 973.45 183.00
  L 964.27 183.00
  A 1.30 1.29 80.5 0 1 963.05 182.12
  Q 952.86 151.62 942.83 120.68
  Q 942.52 119.72 941.55 119.49
  A 0.30 0.30 0.0 0 0 941.18 119.75
  L 935.99 181.57
  A 1.57 1.56 2.4 0 1 934.43 183.00
  L 919.32 183.00
  A 1.33 1.32 -87.6 0 1 918.00 181.56
  L 925.15 97.29
  A 1.14 1.13 -87.5 0 1 926.28 96.25
  L 949.46 96.25
  A 1.68 1.67 80.8 0 1 951.05 97.40
  L 968.35 149.04
  Z"
/>
<path fill="#000000" d="
  M 1114.02 102.28
  A 1.03 1.03 0.0 0 1 1115.05 101.25
  L 1128.90 101.25
  A 0.90 0.90 0.0 0 1 1129.80 102.16
  L 1129.61 119.61
  Q 1129.60 121.12 1131.11 121.17
  L 1141.50 121.48
  A 0.77 0.77 0.0 0 1 1142.25 122.25
  L 1142.25 133.41
  A 1.18 1.18 0.0 0 1 1141.09 134.59
  L 1130.40 134.82
  A 0.61 0.61 0.0 0 0 1129.80 135.40
  Q 1129.16 149.20 1129.78 162.98
  C 1130.10 170.09 1135.86 170.28 1141.20 170.02
  A 0.93 0.93 0.0 0 1 1142.17 170.92
  L 1142.48 181.26
  A 1.69 1.69 0.0 0 1 1140.78 183.01
  C 1135.41 182.97 1128.85 183.59 1124.13 182.10
  Q 1112.47 178.44 1112.33 165.16
  Q 1112.17 150.36 1112.27 135.80
  A 0.99 0.98 -89.4 0 0 1111.30 134.80
  L 1101.56 134.65
  A 1.34 1.33 -89.6 0 1 1100.25 133.31
  L 1100.25 122.48
  A 1.31 1.30 -87.2 0 1 1101.68 121.18
  C 1116.11 122.66 1114.01 111.83 1114.02 102.28
  Z"
/>
<path fill="#000000" d="
  M 558.17 164.56
  C 550.47 138.94 567.29 115.61 595.06 120.64
  C 612.98 123.89 619.42 137.39 618.72 154.06
  Q 618.66 155.63 617.09 155.61
  Q 595.36 155.38 575.76 155.22
  Q 573.90 155.21 573.40 156.39
  Q 573.08 157.13 573.48 158.62
  C 577.02 171.94 595.31 175.74 602.04 162.90
  A 0.90 0.89 -71.5 0 1 602.97 162.43
  L 616.74 164.49
  A 1.07 1.06 -74.2 0 1 617.56 165.97
  Q 610.41 182.42 591.98 184.21
  C 577.87 185.58 562.45 178.79 558.17 164.56
  Z
  M 574.07 144.37
  L 601.47 144.13
  A 0.14 0.14 0.0 0 0 601.61 143.99
  L 601.61 143.93
  A 13.22 12.06 -0.5 0 0 588.29 131.98
  L 587.05 132.00
  A 13.22 12.06 -0.5 0 0 573.93 144.17
  L 573.93 144.23
  A 0.14 0.14 0.0 0 0 574.07 144.37
  Z"
/>
<path fill="#000000" d="
  M 1049.52 156.68
  C 1049.63 164.83 1056.11 169.98 1063.83 170.60
  Q 1072.68 171.31 1078.13 163.14
  A 1.38 1.38 0.0 0 1 1079.48 162.55
  L 1092.50 164.52
  Q 1093.94 164.74 1093.39 166.09
  C 1082.54 192.65 1039.93 190.03 1033.33 161.33
  C 1022.01 112.12 1097.04 102.84 1094.72 154.17
  A 1.46 1.46 0.0 0 1 1093.25 155.56
  L 1051.00 155.19
  A 1.47 1.46 -0.4 0 0 1049.52 156.68
  Z
  M 1077.58 142.93
  C 1075.69 127.12 1050.18 129.34 1050.04 143.56
  A 0.68 0.68 0.0 0 0 1050.72 144.25
  L 1076.41 144.25
  A 1.18 1.18 0.0 0 0 1077.58 142.93
  Z"
/>
<path fill="#000000" d="
  M 1158.64 130.14
  C 1166.93 120.74 1180.84 118.36 1192.50 121.25
  C 1207.81 125.04 1214.57 139.05 1213.37 153.86
  A 1.84 1.83 -87.5 0 1 1211.53 155.55
  L 1169.29 155.18
  A 1.32 1.31 -2.4 0 0 1167.97 156.61
  C 1169.16 169.81 1183.85 174.75 1193.73 166.95
  C 1194.98 165.97 1195.69 163.91 1197.14 162.80
  Q 1197.53 162.50 1198.01 162.57
  L 1210.77 164.41
  A 1.43 1.43 0.0 0 1 1211.87 166.40
  C 1204.31 183.73 1184.29 188.36 1167.93 181.10
  C 1148.70 172.57 1145.59 144.94 1158.64 130.14
  Z
  M 1168.97 144.28
  L 1196.15 144.28
  A 0.16 0.16 0.0 0 0 1196.31 144.12
  L 1196.31 144.04
  A 12.73 12.06 0.0 0 0 1183.58 131.98
  L 1181.54 131.98
  A 12.73 12.06 0.0 0 0 1168.81 144.04
  L 1168.81 144.12
  A 0.16 0.16 0.0 0 0 1168.97 144.28
  Z"
/>
<path fill="#000000" d="
  M 688.81 164.54
  C 691.15 170.67 697.52 173.30 703.67 171.91
  C 712.71 169.86 709.34 160.83 702.27 159.16
  C 692.41 156.84 678.65 153.21 675.93 143.28
  C 668.68 116.87 716.51 111.58 723.12 134.85
  A 1.50 1.50 0.0 0 1 722.03 136.72
  L 711.69 139.20
  A 1.39 1.38 -18.8 0 1 710.10 138.42
  C 704.72 126.26 685.57 132.87 692.23 140.02
  C 693.72 141.62 696.09 142.64 698.46 143.21
  C 706.05 145.03 712.89 146.52 719.00 151.03
  C 728.06 157.72 727.53 172.07 719.63 178.71
  C 711.31 185.69 695.27 186.01 685.33 181.42
  Q 676.78 177.47 673.89 168.24
  A 1.20 1.19 73.5 0 1 674.71 166.73
  L 686.63 163.44
  A 1.82 1.82 0.0 0 1 688.81 164.54
  Z"
/>
<path fill="#000000" d="
  M 771.83 137.85
  C 770.33 132.79 765.69 132.00 760.89 131.89
  Q 752.53 131.71 749.86 140.11
  A 1.57 1.57 0.0 0 1 748.09 141.18
  L 736.23 139.03
  Q 734.58 138.73 735.02 137.12
  C 739.72 119.94 760.92 117.48 774.86 121.90
  C 786.99 125.76 788.38 135.03 788.48 147.29
  C 788.58 158.99 788.13 170.37 790.12 181.63
  A 1.16 1.16 0.0 0 1 788.98 183.00
  L 775.48 183.00
  A 1.84 1.84 0.0 0 1 773.67 181.50
  L 772.94 177.56
  A 0.69 0.69 0.0 0 0 771.81 177.17
  C 759.24 188.22 731.87 188.11 734.09 164.74
  C 735.58 149.00 755.77 147.40 767.49 144.49
  C 770.84 143.66 772.90 141.46 771.83 137.85
  Z
  M 771.92 155.04
  C 766.94 156.21 744.69 159.71 751.05 169.22
  C 754.84 174.89 764.40 172.57 768.31 168.65
  C 771.53 165.41 773.02 160.44 773.01 155.90
  A 0.88 0.88 0.0 0 0 771.92 155.04
  Z"
/>
<path fill="#000000" d="
  M 648.34 129.79
  A 0.47 0.47 0.0 0 0 649.16 130.11
  Q 656.12 122.09 666.76 120.75
  Q 668.75 120.49 668.75 122.50
  L 668.75 134.50
  A 1.45 1.44 87.6 0 1 667.43 135.94
  C 653.20 137.12 649.57 140.46 649.52 155.06
  Q 649.47 168.67 649.51 181.99
  A 1.01 1.00 -90.0 0 1 648.51 183.00
  L 633.48 183.00
  A 1.50 1.50 0.0 0 1 631.98 181.51
  Q 631.94 160.44 632.28 139.00
  Q 632.42 130.84 631.84 123.16
  A 1.82 1.81 -1.4 0 1 633.70 121.21
  L 647.34 121.55
  A 1.25 1.25 0.0 0 1 648.56 122.84
  L 648.34 129.79
  Z"
/>
<path fill="#000000" d="
  M 821.68 129.48
  A 0.56 0.56 0.0 0 0 822.66 129.87
  Q 829.47 122.07 839.81 120.77
  Q 842.02 120.50 842.01 122.72
  L 841.98 133.80
  A 2.20 2.19 87.9 0 1 839.96 135.98
  C 826.52 137.03 822.57 141.65 822.46 155.00
  Q 822.35 167.87 822.82 181.64
  A 1.31 1.31 0.0 0 1 821.51 183.00
  L 806.50 183.00
  A 1.00 1.00 0.0 0 1 805.50 182.00
  L 805.50 122.20
  Q 805.50 121.40 806.30 121.41
  L 820.78 121.54
  A 1.19 1.19 0.0 0 1 821.96 122.78
  L 821.68 129.48
  Z"
/>
<path fill="#000000" d="
  M 1226.81 122.71
  A 1.45 1.44 -89.0 0 1 1228.29 121.27
  L 1242.05 121.58
  A 0.97 0.97 0.0 0 1 1243.00 122.55
  L 1243.00 129.44
  A 0.68 0.68 0.0 0 0 1244.19 129.88
  Q 1251.15 121.85 1261.84 120.76
  A 1.30 1.30 0.0 0 1 1263.27 122.06
  L 1263.20 134.16
  A 2.09 2.09 0.0 0 1 1260.95 136.22
  C 1246.88 135.13 1243.96 144.06 1243.99 155.86
  Q 1244.03 168.81 1243.99 181.47
  A 1.51 1.50 -89.8 0 1 1242.49 182.97
  L 1228.03 183.01
  A 1.30 1.30 0.0 0 1 1226.73 181.71
  L 1226.81 122.71
  Z"
/>
<path fill="#000000" d="
  M 519.19 161.85
  L 533.54 121.93
  A 0.86 0.86 0.0 0 1 534.36 121.36
  L 550.47 121.55
  A 0.86 0.86 0.0 0 1 551.25 122.75
  L 525.97 182.48
  A 0.86 0.86 0.0 0 1 525.18 183.00
  L 511.39 183.00
  A 0.86 0.86 0.0 0 1 510.60 182.47
  L 485.56 122.40
  A 0.86 0.86 0.0 0 1 486.37 121.21
  L 502.54 121.51
  A 0.86 0.86 0.0 0 1 503.33 122.08
  L 517.57 161.85
  A 0.86 0.86 0.0 0 0 519.19 161.85
  Z"
/>
<path fill="#000000" d="
  M 892.90 121.50
  L 908.74 121.50
  A 0.76 0.76 0.0 0 1 909.44 122.55
  L 872.36 211.78
  A 0.76 0.76 0.0 0 1 871.66 212.25
  L 855.94 212.25
  A 0.76 0.76 0.0 0 1 855.25 211.19
  L 868.55 180.79
  A 0.76 0.76 0.0 0 0 868.55 180.19
  L 843.98 122.46
  A 0.76 0.76 0.0 0 1 844.69 121.40
  L 861.70 121.55
  A 0.76 0.76 0.0 0 1 862.41 122.05
  L 876.16 160.35
  A 0.76 0.76 0.0 0 0 877.58 160.36
  L 892.19 121.99
  A 0.76 0.76 0.0 0 1 892.90 121.50
  Z"
/>
<path fill="#f8b500" d="
  M 419.92 311.62
  C 407.46 308.60 405.14 291.30 414.17 283.46
  C 422.09 276.58 434.80 279.13 439.50 288.77
  Q 439.78 289.35 439.17 289.57
  L 434.34 291.29
  A 0.80 0.80 0.0 0 1 433.37 290.93
  C 428.00 281.34 414.64 285.86 415.01 296.49
  C 415.37 306.80 428.25 310.16 433.46 301.03
  Q 433.78 300.47 434.40 300.67
  L 438.01 301.84
  A 2.02 2.02 0.0 0 1 438.95 305.04
  Q 431.30 314.38 419.92 311.62
  Z"
/>
<path fill="#f8b500" d="
  M 554.36 286.02
  L 548.20 285.97
  A 0.71 0.71 0.0 0 1 547.50 285.26
  L 547.50 280.51
  Q 547.50 279.84 548.17 279.86
  Q 563.00 280.20 566.74 279.99
  C 569.97 279.82 569.60 283.22 569.05 285.15
  Q 568.87 285.82 568.18 285.85
  L 562.45 286.07
  A 0.98 0.98 0.0 0 0 561.50 287.05
  L 561.50 311.25
  Q 561.50 311.76 561.00 311.75
  L 555.67 311.74
  A 0.64 0.64 0.0 0 1 555.03 311.10
  L 554.94 286.61
  A 0.59 0.58 90.0 0 0 554.36 286.02
  Z"
/>
<path fill="#f8b500" d="
  M 744.65 294.62
  C 741.34 292.61 741.60 286.64 743.30 284.18
  C 748.33 276.94 762.09 278.63 765.19 287.16
  Q 765.42 287.82 764.75 287.99
  L 760.19 289.15
  Q 759.48 289.33 759.13 288.69
  C 754.25 279.60 743.37 289.07 751.64 291.96
  C 757.32 293.95 765.26 295.10 765.68 302.90
  C 766.30 314.60 744.46 315.78 741.09 304.03
  A 1.08 1.08 0.0 0 1 741.96 302.67
  L 747.07 301.88
  Q 747.58 301.80 747.74 302.28
  C 750.62 311.19 763.69 306.00 757.38 300.20
  Q 756.56 299.45 754.30 298.82
  Q 749.18 297.38 744.65 294.62
  Z"
/>
<path fill="#f8b500" d="
  M 859.83 303.24
  C 854.67 315.16 834.69 315.49 830.58 302.80
  Q 826.44 290.01 835.16 283.21
  C 842.65 277.38 856.48 278.82 859.82 288.90
  A 0.59 0.59 0.0 0 1 859.45 289.64
  L 854.63 291.32
  A 0.69 0.69 0.0 0 1 853.78 290.97
  C 850.07 283.38 839.15 284.26 836.33 291.96
  C 831.86 304.17 847.55 312.44 853.93 300.95
  A 0.85 0.85 0.0 0 1 855.00 300.58
  L 859.51 302.44
  A 0.61 0.61 0.0 0 1 859.83 303.24
  Z"
/>
<path fill="#f8b500" d="
  M 905.41 306.75
  C 900.65 315.45 882.75 314.18 882.54 302.16
  Q 882.35 291.60 881.98 280.83
  Q 881.95 280.04 882.73 280.04
  L 887.95 279.98
  A 0.96 0.94 -88.0 0 1 888.90 281.01
  Q 888.12 290.98 888.87 301.17
  C 889.12 304.66 891.26 306.62 894.77 306.56
  C 899.52 306.48 900.26 302.88 900.25 298.72
  Q 900.25 290.10 900.25 281.25
  A 1.53 1.53 0.0 0 1 901.91 279.73
  L 906.03 280.10
  A 0.75 0.75 0.0 0 1 906.71 280.75
  C 907.11 283.87 907.88 302.24 905.41 306.75
  Z"
/>
<path fill="#f8b500" d="
  M 1073.13 279.99
  A 0.81 0.81 0.0 0 1 1073.81 281.25
  Q 1069.46 287.82 1065.27 294.66
  C 1063.05 298.29 1063.93 306.33 1064.04 310.70
  A 1.02 1.02 0.0 0 1 1063.02 311.75
  L 1058.49 311.75
  A 1.05 1.04 -89.2 0 1 1057.45 310.67
  C 1057.58 306.48 1058.45 298.27 1056.22 294.79
  Q 1051.91 288.05 1047.54 281.07
  A 0.83 0.83 0.0 0 1 1048.30 279.80
  L 1053.63 280.15
  Q 1054.06 280.18 1054.29 280.55
  L 1059.76 289.58
  A 1.12 1.12 0.0 0 0 1061.69 289.55
  L 1066.90 280.55
  Q 1067.19 280.04 1067.79 280.03
  L 1073.13 279.99
  Z"
/>
<path fill="#f8b500" d="
  M 318.70 280.70
  A 0.65 0.65 0.0 0 1 319.34 280.04
  L 330.76 280.00
  A 14.34 14.17 89.8 0 1 344.98 294.29
  L 345.00 297.41
  A 14.34 14.17 89.8 0 1 330.88 311.80
  L 319.46 311.84
  A 0.65 0.65 0.0 0 1 318.80 311.20
  L 318.70 280.70
  Z
  M 324.92 287.18
  L 325.02 304.80
  A 1.46 1.46 0.0 0 0 326.48 306.26
  L 329.90 306.24
  A 8.18 7.92 -0.3 0 0 338.04 298.28
  L 338.02 293.58
  A 8.18 7.92 -0.3 0 0 329.80 285.70
  L 326.38 285.72
  A 1.46 1.46 0.0 0 0 324.92 287.18
  Z"
/>
<path fill="#f8b500" d="
  M 375.09 286.89
  L 374.96 292.20
  A 0.99 0.99 0.0 0 0 375.95 293.22
  L 384.79 293.17
  A 0.99 0.99 0.0 0 1 385.78 294.22
  L 385.58 298.06
  A 0.99 0.99 0.0 0 1 384.57 299.00
  L 376.02 298.79
  A 0.99 0.99 0.0 0 0 375.01 299.78
  L 374.99 305.31
  A 0.99 0.99 0.0 0 0 376.02 306.30
  L 385.97 305.96
  A 0.99 0.99 0.0 0 1 386.99 306.95
  L 386.99 310.76
  A 0.99 0.99 0.0 0 1 386.00 311.75
  L 369.74 311.75
  A 0.99 0.99 0.0 0 1 368.75 310.76
  L 368.75 280.99
  A 0.99 0.99 0.0 0 1 369.74 280.00
  L 385.84 280.00
  A 0.99 0.99 0.0 0 1 386.82 280.94
  L 387.01 284.88
  A 0.99 0.99 0.0 0 1 386.02 285.92
  L 376.08 285.92
  A 0.99 0.99 0.0 0 0 375.09 286.89
  Z"
/>
<path fill="#f8b500" d="
  M 469.06 299.80
  L 468.72 305.34
  A 0.89 0.89 0.0 0 0 469.63 306.29
  L 479.84 306.03
  A 0.89 0.89 0.0 0 1 480.75 306.92
  L 480.75 310.86
  A 0.89 0.89 0.0 0 1 479.86 311.75
  L 463.41 311.75
  A 0.89 0.89 0.0 0 1 462.52 310.87
  L 462.34 280.90
  A 0.89 0.89 0.0 0 1 463.23 280.00
  L 479.86 280.00
  A 0.89 0.89 0.0 0 1 480.75 280.92
  L 480.63 285.10
  A 0.89 0.89 0.0 0 1 479.73 285.97
  L 469.89 285.94
  A 0.89 0.89 0.0 0 0 469.00 286.83
  L 469.00 292.32
  A 0.89 0.89 0.0 0 0 469.91 293.21
  L 478.54 293.05
  A 0.89 0.89 0.0 0 1 479.44 293.97
  L 479.28 298.05
  A 0.89 0.89 0.0 0 1 478.40 298.91
  L 469.94 298.96
  A 0.89 0.89 0.0 0 0 469.06 299.80
  Z"
/>
<path fill="#f8b500" d="
  M 511.86 300.27
  A 0.54 0.53 -85.8 0 0 511.25 300.80
  L 511.25 311.25
  Q 511.25 311.76 510.75 311.75
  L 505.44 311.74
  A 0.61 0.61 0.0 0 1 504.83 311.13
  L 504.88 280.90
  A 0.90 0.90 0.0 0 1 505.78 280.00
  C 514.40 280.01 527.40 277.56 527.74 290.51
  C 527.99 299.91 518.92 301.22 511.86 300.27
  Z
  M 511.04 286.78
  L 511.06 293.92
  A 1.13 1.13 0.0 0 0 512.20 295.04
  L 516.82 295.03
  A 4.71 4.03 -0.2 0 0 521.51 290.98
  L 521.51 289.64
  A 4.71 4.03 -0.2 0 0 516.78 285.63
  L 512.16 285.64
  A 1.13 1.13 0.0 0 0 511.04 286.78
  Z"
/>
<rect fill="#f8b500" x="-3.35" y="-15.86" transform="translate(594.41,295.90) rotate(-0.1)" width="6.70" height="31.72" rx="0.94"/>
<path fill="#f8b500" d="
  M 635.51 302.79
  L 643.07 280.41
  A 0.61 0.61 0.0 0 1 643.65 279.99
  L 649.34 280.01
  A 0.61 0.61 0.0 0 1 649.91 280.83
  L 638.65 311.38
  A 0.61 0.61 0.0 0 1 638.07 311.78
  L 631.70 311.69
  A 0.61 0.61 0.0 0 1 631.14 311.29
  L 620.02 280.80
  A 0.61 0.61 0.0 0 1 620.61 279.98
  L 626.10 280.06
  A 0.61 0.61 0.0 0 1 626.67 280.48
  L 634.36 302.80
  A 0.61 0.61 0.0 0 0 635.51 302.79
  Z"
/>
<path fill="#f8b500" d="
  M 679.66 306.27
  L 689.83 306.03
  A 0.89 0.89 0.0 0 1 690.74 306.93
  L 690.69 310.95
  A 0.89 0.89 0.0 0 1 689.80 311.83
  L 673.18 311.73
  A 0.89 0.89 0.0 0 1 672.30 310.85
  L 672.23 280.89
  A 0.89 0.89 0.0 0 1 673.12 280.00
  L 689.75 280.00
  A 0.89 0.89 0.0 0 1 690.64 280.90
  L 690.58 285.05
  A 0.89 0.89 0.0 0 1 689.69 285.93
  L 679.65 285.93
  A 0.89 0.89 0.0 0 0 678.76 286.82
  L 678.74 292.28
  A 0.89 0.89 0.0 0 0 679.64 293.17
  L 688.35 293.11
  A 0.89 0.89 0.0 0 1 689.25 294.00
  L 689.25 298.04
  A 0.89 0.89 0.0 0 1 688.36 298.93
  L 679.64 298.96
  A 0.89 0.89 0.0 0 0 678.75 299.85
  L 678.75 305.38
  A 0.89 0.89 0.0 0 0 679.66 306.27
  Z"
/>
<path fill="#f8b500" d="
  M 795.56 299.74
  L 795.47 305.32
  A 0.98 0.98 0.0 0 0 796.49 306.31
  L 806.70 305.91
  A 0.98 0.98 0.0 0 1 807.71 307.00
  L 807.27 310.88
  A 0.98 0.98 0.0 0 1 806.30 311.75
  L 790.29 311.75
  A 0.98 0.98 0.0 0 1 789.31 310.78
  L 789.10 280.99
  A 0.98 0.98 0.0 0 1 790.08 280.00
  L 806.28 280.00
  A 0.98 0.98 0.0 0 1 807.26 280.97
  L 807.32 284.92
  A 0.98 0.98 0.0 0 1 806.35 285.92
  L 796.51 285.97
  A 0.98 0.98 0.0 0 0 795.53 286.94
  L 795.49 292.20
  A 0.98 0.98 0.0 0 0 796.48 293.19
  L 805.01 293.08
  A 0.98 0.98 0.0 0 1 806.00 294.06
  L 806.00 297.93
  A 0.98 0.98 0.0 0 1 805.00 298.91
  L 796.55 298.78
  A 0.98 0.98 0.0 0 0 795.56 299.74
  Z"
/>
<path fill="#f8b500" d="
  M 932.08 311.68
  A 0.34 0.33 -90.0 0 1 931.75 311.34
  L 931.75 280.74
  Q 931.75 280.12 932.37 280.09
  C 940.07 279.80 949.38 278.40 952.41 285.57
  C 954.44 290.38 952.78 295.06 947.81 297.02
  Q 946.49 297.54 947.28 298.72
  L 955.49 311.02
  A 0.51 0.51 0.0 0 1 955.06 311.82
  L 948.70 311.70
  Q 948.10 311.68 947.82 311.16
  Q 944.43 305.03 941.03 298.99
  Q 940.27 297.65 939.02 297.78
  A 1.19 1.18 -3.9 0 0 937.96 298.99
  L 938.32 311.22
  Q 938.34 311.79 937.77 311.78
  L 932.08 311.68
  Z
  M 938.04 287.18
  L 938.04 291.56
  A 1.69 1.69 0.0 0 0 939.72 293.26
  L 942.12 293.26
  A 4.87 3.34 0.1 0 0 947.00 289.93
  L 947.00 288.85
  A 4.87 3.34 0.1 0 0 942.14 285.50
  L 939.74 285.50
  A 1.69 1.69 0.0 0 0 938.04 287.18
  Z"
/>
<rect fill="#f8b500" x="-3.27" y="-15.86" transform="translate(981.48,295.88) rotate(-0.2)" width="6.54" height="31.72" rx="0.73"/>
<path fill="#f8b500" d="
  M 1013.49 286.04
  L 1007.70 285.90
  A 0.97 0.97 0.0 0 1 1006.75 284.91
  L 1006.84 280.95
  A 0.97 0.97 0.0 0 1 1007.81 280.00
  L 1027.47 280.00
  A 0.97 0.97 0.0 0 1 1028.44 280.98
  L 1028.40 284.94
  A 0.97 0.97 0.0 0 1 1027.46 285.90
  L 1021.94 286.05
  A 0.97 0.97 0.0 0 0 1021.00 287.02
  L 1021.00 310.78
  A 0.97 0.97 0.0 0 1 1020.03 311.75
  L 1015.51 311.75
  A 0.97 0.97 0.0 0 1 1014.54 310.78
  L 1014.43 287.00
  A 0.97 0.97 0.0 0 0 1013.49 286.04
  Z"
/>
</svg>
