<?xml version="1.0" encoding="UTF-8" standalone="no"?>
<!DOCTYPE svg PUBLIC "-//W3C//DTD SVG 1.1//EN" "http://www.w3.org/Graphics/SVG/1.1/DTD/svg11.dtd">
<svg xmlns="http://www.w3.org/2000/svg" version="1.1" viewBox="0.00 0.00 1280.00 411.00">
<path fill="#f8b500" d="
  M 87.61 317.91
  C 82.24 290.35 105.09 263.73 132.49 263.01
  C 141.40 262.78 152.32 265.70 161.99 267.64
  Q 169.56 269.15 173.62 268.60
  C 185.90 266.91 194.36 256.16 193.62 243.90
  A 0.34 0.34 0.0 0 0 192.94 243.85
  Q 189.89 258.97 175.24 262.77
  C 172.89 263.38 167.55 262.32 164.43 261.47
  C 155.63 259.10 145.81 255.66 137.19 255.36
  Q 103.34 254.18 88.94 286.15
  A 0.65 0.64 -62.2 0 1 88.02 286.44
  Q 66.93 273.63 63.84 249.58
  C 61.94 234.73 72.97 217.35 83.78 208.22
  C 87.31 205.24 91.85 202.77 96.15 200.39
  C 106.96 194.38 113.92 184.45 111.64 171.60
  A 0.44 0.44 0.0 0 0 110.77 171.60
  Q 108.99 182.41 101.10 188.98
  C 96.43 192.88 88.48 195.35 83.83 198.58
  Q 75.65 204.26 70.11 212.11
  Q 69.46 213.04 68.58 212.32
  Q 49.79 196.90 49.74 172.51
  C 49.67 141.34 80.94 121.73 109.80 130.77
  C 125.68 135.74 137.05 149.52 139.96 166.26
  C 140.82 171.21 140.92 177.68 142.56 182.45
  C 145.90 192.12 154.47 200.64 165.07 202.09
  A 0.68 0.68 0.0 0 0 165.44 200.79
  Q 152.42 195.05 149.05 181.88
  Q 148.47 179.62 148.03 171.48
  C 146.57 144.33 125.18 120.77 96.90 123.64
  A 2.07 2.07 0.0 0 1 94.73 122.27
  C 89.51 107.32 89.08 91.70 100.73 79.98
  Q 110.13 70.53 126.43 59.17
  C 131.00 55.98 137.57 52.69 143.67 53.89
  A 0.65 0.65 0.0 0 1 144.19 54.55
  C 143.33 82.00 164.20 104.56 191.90 101.52
  Q 192.95 101.40 193.47 100.95
  A 0.50 0.49 31.0 0 0 193.25 100.09
  C 173.12 95.57 156.55 82.49 152.13 61.57
  C 143.82 22.24 182.18 -5.82 217.12 11.54
  Q 238.76 22.28 244.19 46.89
  C 245.46 52.62 244.82 59.49 245.23 65.82
  Q 245.27 66.49 245.94 66.49
  L 311.03 66.52
  Q 311.63 66.52 311.93 66.01
  C 322.72 47.85 348.25 62.41 339.08 79.81
  C 333.35 90.68 318.57 90.44 312.55 80.04
  A 2.59 2.59 0.0 0 0 310.31 78.75
  L 246.28 78.75
  A 1.22 1.22 0.0 0 0 245.06 79.97
  L 244.97 113.73
  A 1.02 1.02 0.0 0 0 245.99 114.75
  L 283.04 114.75
  A 0.88 0.86 13.2 0 0 283.82 114.28
  C 289.41 103.69 303.88 102.70 310.11 112.40
  C 321.47 130.10 294.88 146.20 284.27 128.27
  A 2.57 2.55 -15.1 0 0 282.06 127.01
  L 246.34 127.00
  A 1.20 1.20 0.0 0 0 245.14 128.18
  C 244.92 138.25 244.18 149.78 245.31 159.92
  Q 245.40 160.66 245.95 160.17
  L 249.33 157.17
  Q 249.80 156.75 250.43 156.75
  L 335.76 156.75
  A 0.92 0.91 -74.0 0 0 336.54 156.31
  C 339.26 151.86 343.14 148.69 348.47 148.09
  C 358.06 147.01 366.91 155.68 365.21 165.46
  C 362.68 180.00 343.19 182.99 336.59 169.84
  A 1.52 1.52 0.0 0 0 335.23 169.00
  L 255.01 169.00
  A 1.14 1.11 21.2 0 0 254.19 169.35
  C 252.49 171.10 245.01 176.95 245.00 180.81
  Q 244.93 198.61 245.06 217.02
  Q 245.07 219.30 246.68 217.69
  L 254.05 210.32
  A 1.19 1.16 22.0 0 1 254.88 209.98
  Q 277.61 210.04 300.23 209.98
  Q 301.03 209.98 301.47 209.15
  C 307.71 197.40 323.77 198.90 328.79 210.54
  C 336.33 228.03 310.52 240.08 300.97 222.80
  Q 300.67 222.25 300.04 222.25
  L 260.97 222.25
  A 3.26 3.24 22.4 0 0 258.67 223.20
  L 245.42 236.46
  A 1.20 0.95 -27.7 0 0 245.07 237.25
  L 245.22 290.33
  A 1.17 1.17 0.0 0 0 246.39 291.50
  L 304.99 291.50
  A 2.64 2.60 22.4 0 0 306.83 290.75
  Q 319.04 278.73 330.96 266.49
  C 331.86 265.57 333.99 264.34 333.73 262.53
  Q 332.04 250.60 342.25 245.73
  C 358.13 238.16 372.41 260.61 357.49 271.51
  Q 350.76 276.43 342.77 273.54
  A 1.78 1.76 32.3 0 0 340.92 273.95
  L 312.08 302.80
  A 3.29 3.25 -67.1 0 1 309.78 303.75
  L 245.94 303.75
  A 0.82 0.81 -89.6 0 0 245.13 304.56
  L 244.97 331.12
  Q 244.96 332.29 246.12 332.29
  L 320.63 332.23
  Q 321.17 332.23 321.41 331.75
  C 326.62 321.47 340.45 320.40 346.94 329.32
  C 359.76 346.93 332.28 364.28 321.31 345.48
  A 1.27 1.27 0.0 0 0 320.23 344.85
  Q 286.24 344.50 252.00 344.41
  Q 248.90 344.41 245.80 344.78
  Q 245.33 344.84 245.31 345.31
  C 244.92 351.83 245.43 358.86 244.10 364.80
  C 238.60 389.42 215.64 408.04 189.72 404.51
  C 168.99 401.68 154.12 387.90 150.19 366.81
  C 144.81 337.92 166.51 316.18 193.20 310.15
  A 0.58 0.58 0.0 0 0 193.13 309.01
  C 191.99 308.90 190.71 308.47 189.60 308.46
  C 162.97 308.16 142.21 329.11 144.53 355.95
  Q 144.58 356.55 144.01 356.73
  Q 142.56 357.18 140.32 357.35
  C 114.13 359.31 92.69 344.02 87.61 317.91
  Z"
/>
<path fill="#000000" d="
  M 798.33 134.87
  A 0.55 0.55 0.0 0 0 799.28 134.50
  L 799.01 79.75
  A 0.79 0.79 0.0 0 1 799.81 78.96
  L 829.86 79.10
  A 0.63 0.63 0.0 0 1 830.49 79.73
  L 830.67 239.71
  A 2.11 2.11 0.0 0 1 828.54 241.82
  L 799.89 241.54
  Q 799.25 241.53 799.25 240.89
  L 799.25 230.98
  A 0.51 0.51 0.0 0 0 798.39 230.62
  C 786.70 241.97 769.59 245.70 753.75 243.51
  C 728.66 240.04 710.90 222.39 705.93 197.92
  C 700.42 170.84 708.72 141.46 734.02 127.91
  C 753.37 117.54 782.53 117.54 798.33 134.87
  Z
  M 760.76 149.19
  C 730.03 154.32 726.88 200.68 753.80 212.98
  C 768.56 219.73 790.16 214.91 797.17 199.18
  Q 801.90 188.56 799.88 175.79
  C 796.72 155.73 779.94 145.99 760.76 149.19
  Z"
/>
<path fill="#000000" d="
  M 462.46 114.96
  L 462.60 147.83
  Q 462.60 148.50 463.27 148.50
  L 536.49 148.50
  A 1.27 1.27 0.0 0 1 537.76 149.83
  Q 537.15 162.53 537.85 175.78
  C 537.96 178.02 535.89 177.96 534.08 177.97
  Q 498.85 178.03 463.79 177.99
  Q 462.66 177.99 462.66 179.12
  L 462.51 240.34
  A 1.42 1.41 -89.8 0 1 461.10 241.75
  L 430.03 241.75
  A 1.04 1.03 90.0 0 1 429.00 240.71
  L 429.00 84.83
  A 0.31 0.30 -0.0 0 1 429.31 84.53
  L 546.21 84.43
  A 1.29 1.28 0.0 0 1 547.50 85.71
  L 547.50 112.31
  A 1.56 1.56 0.0 0 1 545.94 113.87
  L 463.48 113.94
  A 1.02 1.02 0.0 0 0 462.46 114.96
  Z"
/>
<path fill="#000000" d="
  M 1216.29 241.74
  L 1187.93 241.74
  Q 1186.69 241.74 1186.72 240.50
  L 1186.89 231.43
  A 0.60 0.60 0.0 0 0 1185.88 230.98
  C 1172.13 243.65 1151.49 246.95 1133.68 241.97
  C 1103.69 233.59 1089.19 204.68 1092.33 174.87
  C 1094.99 149.61 1109.12 129.73 1134.20 123.00
  C 1152.20 118.17 1172.91 120.90 1186.26 134.87
  A 0.50 0.49 22.4 0 0 1187.11 134.52
  L 1186.90 124.31
  A 0.79 0.79 0.0 0 1 1187.69 123.50
  L 1217.50 123.50
  A 1.00 1.00 0.0 0 1 1218.50 124.50
  L 1218.50 239.52
  A 2.22 2.21 -90.0 0 1 1216.29 241.74
  Z
  M 1130.87 159.38
  C 1121.05 171.23 1120.77 190.85 1129.56 203.18
  C 1138.71 216.03 1156.88 218.91 1170.93 212.93
  C 1185.37 206.78 1190.23 189.55 1187.50 174.78
  C 1184.81 160.23 1174.76 150.67 1160.31 149.03
  C 1149.14 147.75 1138.26 150.47 1130.87 159.38
  Z"
/>
<path fill="#000000" d="
  M 1039.94 138.23
  A 0.41 0.40 67.4 0 0 1040.64 138.52
  C 1043.41 135.57 1046.24 132.09 1049.59 129.97
  Q 1063.17 121.35 1079.72 121.31
  A 0.84 0.83 0.3 0 1 1080.56 122.15
  L 1080.24 151.24
  A 1.28 1.28 0.0 0 1 1078.92 152.51
  C 1061.50 151.92 1045.73 160.42 1041.36 177.91
  Q 1040.01 183.30 1040.09 197.82
  Q 1040.21 218.61 1040.29 239.95
  A 1.80 1.79 -0.2 0 1 1038.49 241.75
  L 1009.73 241.75
  A 1.51 1.51 0.0 0 1 1008.22 240.23
  L 1008.33 124.19
  A 0.73 0.73 0.0 0 1 1009.06 123.46
  L 1038.81 123.52
  A 1.50 1.50 0.0 0 1 1040.31 125.06
  L 1039.94 138.23
  Z"
/>
<path fill="#000000" d="
  M 590.98 195.10
  Q 589.86 195.46 590.18 196.59
  C 593.38 207.80 600.75 212.27 611.85 215.12
  C 627.28 219.08 640.49 214.95 651.60 203.65
  A 1.44 1.44 0.0 0 1 653.34 203.41
  L 675.95 216.48
  A 1.10 1.09 -56.4 0 1 676.27 218.09
  Q 655.42 245.26 620.25 244.50
  C 607.72 244.23 592.59 239.56 582.27 232.29
  Q 558.89 215.81 558.21 184.01
  C 557.51 151.51 577.49 129.14 608.57 122.99
  C 631.65 118.42 654.45 125.37 669.93 143.05
  C 682.86 157.82 684.32 174.40 683.30 193.18
  A 1.63 1.61 -88.3 0 1 681.69 194.71
  Q 637.24 194.75 592.25 195.00
  Q 591.27 195.00 590.98 195.10
  Z
  M 613.50 150.00
  C 602.69 152.15 592.38 159.82 590.86 171.25
  A 0.88 0.88 0.0 0 0 591.73 172.25
  L 648.49 172.25
  A 1.29 1.29 0.0 0 0 649.74 170.65
  C 645.58 154.03 629.64 146.79 613.50 150.00
  Z"
/>
<path fill="#000000" d="
  M 858.60 168.28
  C 864.15 136.41 897.94 119.21 927.54 121.88
  C 952.71 124.16 975.95 141.99 981.26 167.56
  C 982.71 174.54 983.55 186.86 982.02 194.07
  Q 981.92 194.55 981.45 194.65
  C 978.76 195.26 975.98 194.77 973.97 194.77
  Q 932.86 194.72 891.75 194.78
  Q 890.16 194.78 889.57 195.52
  Q 889.12 196.10 889.48 197.44
  C 893.14 210.84 906.37 215.24 918.68 216.30
  C 932.25 217.47 941.30 212.44 950.82 203.49
  A 1.18 1.18 0.0 0 1 952.22 203.33
  L 975.00 216.45
  A 1.28 1.23 -55.2 0 1 975.30 218.33
  C 959.14 238.53 936.81 247.52 911.53 243.80
  C 871.49 237.91 851.77 207.52 858.60 168.28
  Z
  M 948.63 170.94
  C 944.35 141.94 894.03 142.47 889.78 171.14
  A 0.96 0.96 0.0 0 0 890.73 172.25
  L 947.50 172.25
  A 1.15 1.14 85.9 0 0 948.63 170.94
  Z"
/>
<path fill="#f8b500" d="
  M 529.8315 319.1618
  A 12.95 12.72 -3.8 0 1 517.7530 332.7120
  A 12.95 12.72 -3.8 0 1 503.9885 320.8782
  A 12.95 12.72 -3.8 0 1 516.0670 307.3280
  A 12.95 12.72 -3.8 0 1 529.8315 319.1618
  Z
  M 525.14 320.01
  A 8.20 8.20 0.0 0 0 516.94 311.81
  A 8.20 8.20 0.0 0 0 508.74 320.01
  A 8.20 8.20 0.0 0 0 516.94 328.21
  A 8.20 8.20 0.0 0 0 525.14 320.01
  Z"
/>
<path fill="#f8b500" d="
  M 874.6962 318.9623
  A 13.03 12.72 -4.7 0 1 862.7523 332.7072
  A 13.03 12.72 -4.7 0 1 848.7238 321.0977
  A 13.03 12.72 -4.7 0 1 860.6677 307.3528
  A 13.03 12.72 -4.7 0 1 874.6962 318.9623
  Z
  M 869.92 320.02
  A 8.27 8.27 0.0 0 0 861.65 311.75
  A 8.27 8.27 0.0 0 0 853.38 320.02
  A 8.27 8.27 0.0 0 0 861.65 328.29
  A 8.27 8.27 0.0 0 0 869.92 320.02
  Z"
/>
<path fill="#f8b500" d="
  M 1047.17 326.62
  C 1049.79 328.32 1052.86 329.40 1055.19 326.91
  A 1.14 1.13 67.1 0 0 1055.51 326.12
  C 1055.51 322.60 1046.76 321.45 1044.62 317.49
  Q 1042.94 314.37 1044.44 311.44
  C 1047.12 306.23 1053.75 306.49 1058.44 308.79
  A 1.49 1.49 0.0 0 1 1059.07 310.87
  Q 1058.07 312.64 1056.05 312.78
  Q 1055.58 312.81 1055.17 312.56
  C 1053.38 311.45 1050.03 310.77 1049.02 313.26
  C 1047.74 316.38 1053.32 318.07 1055.32 319.01
  C 1059.19 320.83 1062.11 324.46 1059.71 328.61
  C 1056.53 334.11 1049.00 333.49 1044.12 330.61
  A 1.37 1.37 0.0 0 1 1043.62 328.77
  Q 1044.52 327.17 1046.21 326.52
  Q 1046.71 326.33 1047.17 326.62
  Z"
/>
<path fill="#f8b500" d="
  M 445.01 318.22
  L 444.99 320.74
  A 0.77 0.77 0.0 0 1 444.22 321.50
  L 434.27 321.50
  A 0.77 0.77 0.0 0 0 433.50 322.27
  L 433.49 331.48
  A 0.77 0.77 0.0 0 1 432.72 332.25
  L 429.79 332.25
  A 0.77 0.77 0.0 0 1 429.02 331.48
  L 428.96 308.52
  A 0.77 0.77 0.0 0 1 429.73 307.75
  L 444.44 307.75
  A 0.77 0.77 0.0 0 1 445.21 308.52
  L 445.21 310.96
  A 0.77 0.77 0.0 0 1 444.44 311.73
  L 434.27 311.76
  A 0.77 0.77 0.0 0 0 433.50 312.53
  L 433.50 316.87
  A 0.77 0.77 0.0 0 0 434.28 317.64
  L 444.23 317.45
  A 0.77 0.77 0.0 0 1 445.01 318.22
  Z"
/>
<path fill="#f8b500" d="
  M 470.25 323.50
  L 470.25 331.76
  Q 470.25 332.27 469.74 332.28
  L 466.47 332.34
  A 0.64 0.64 0.0 0 1 465.82 331.71
  L 465.57 308.42
  A 0.64 0.64 0.0 0 1 466.20 307.77
  C 469.86 307.72 477.72 306.79 480.46 309.58
  C 483.91 313.10 483.26 317.88 479.25 320.80
  A 0.60 0.60 0.0 0 0 479.12 321.65
  Q 482.44 326.10 483.52 331.63
  Q 483.64 332.25 483.01 332.25
  L 479.27 332.25
  A 0.60 0.60 0.0 0 1 478.70 331.83
  C 477.53 327.84 476.74 321.66 470.91 322.71
  A 0.80 0.80 0.0 0 0 470.25 323.50
  Z
  M 470.22 312.25
  L 470.24 317.81
  A 1.23 1.23 0.0 0 0 471.48 319.03
  L 473.27 319.02
  A 4.52 3.51 -0.3 0 0 477.77 315.49
  L 477.77 314.49
  A 4.52 3.51 -0.3 0 0 473.23 311.00
  L 471.44 311.01
  A 1.23 1.23 0.0 0 0 470.22 312.25
  Z"
/>
<path fill="#f8b500" d="
  M 556.79 316.74
  A 0.52 0.52 0.0 0 0 555.81 316.99
  L 555.94 330.53
  A 1.74 1.74 0.0 0 1 554.23 332.29
  L 552.70 332.31
  Q 551.32 332.32 551.32 330.94
  L 551.40 308.35
  Q 551.40 307.95 551.79 307.86
  C 554.63 307.17 556.49 307.47 558.02 310.21
  Q 560.58 314.82 563.08 319.10
  A 0.59 0.59 0.0 0 0 564.10 319.10
  L 570.41 308.25
  A 0.83 0.82 -74.6 0 1 571.12 307.84
  L 574.94 307.79
  A 0.90 0.90 0.0 0 1 575.85 308.69
  L 575.80 331.60
  Q 575.80 332.25 575.15 332.25
  L 571.86 332.25
  Q 571.22 332.25 571.22 331.61
  L 571.31 317.30
  A 0.50 0.49 -30.3 0 0 570.38 317.06
  L 564.30 327.69
  A 0.92 0.92 0.0 0 1 562.69 327.67
  L 556.79 316.74
  Z"
/>
<path fill="#f8b500" d="
  M 625.42 308.71
  A 0.97 0.97 0.0 0 1 626.39 307.73
  L 635.24 307.69
  A 12.22 11.94 89.7 0 1 647.24 319.84
  L 647.24 320.14
  A 12.22 11.94 89.7 0 1 635.36 332.43
  L 626.51 332.47
  A 0.97 0.97 0.0 0 1 625.54 331.51
  L 625.42 308.71
  Z
  M 630.28 312.22
  L 630.22 327.54
  A 0.94 0.94 0.0 0 0 631.16 328.48
  L 634.15 328.49
  A 8.09 8.06 0.2 0 0 642.27 320.46
  L 642.27 319.38
  A 8.09 8.06 0.2 0 0 634.21 311.29
  L 631.22 311.28
  A 0.94 0.94 0.0 0 0 630.28 312.22
  Z"
/>
<path fill="#f8b500" d="
  M 669.73 331.78
  C 668.86 332.46 666.58 332.77 665.46 332.22
  A 0.89 0.88 25.8 0 1 665.04 331.05
  L 675.36 309.29
  A 2.83 2.82 -45.1 0 1 680.46 309.28
  L 690.77 331.01
  A 0.76 0.75 68.1 0 1 690.33 332.05
  Q 685.64 333.64 684.74 329.14
  A 2.04 2.03 -5.5 0 0 682.74 327.50
  L 672.49 327.50
  A 0.97 0.96 15.3 0 0 671.66 327.97
  C 670.92 329.20 670.77 330.96 669.73 331.78
  Z
  M 674.00 322.63
  A 0.59 0.59 0.0 0 0 674.52 323.48
  L 681.21 323.52
  A 0.59 0.59 0.0 0 0 681.74 322.67
  L 678.44 315.70
  A 0.59 0.59 0.0 0 0 677.37 315.69
  L 674.00 322.63
  Z"
/>
<path fill="#f8b500" d="
  M 717.53 313.04
  L 717.49 331.31
  A 0.93 0.93 0.0 0 1 716.61 332.24
  L 713.73 332.39
  A 0.93 0.93 0.0 0 1 712.75 331.46
  L 712.75 313.00
  A 0.93 0.93 0.0 0 0 711.87 312.07
  L 706.63 311.81
  A 0.93 0.93 0.0 0 1 705.75 310.88
  L 705.75 308.68
  A 0.93 0.93 0.0 0 1 706.68 307.75
  L 723.44 307.75
  A 0.93 0.93 0.0 0 1 724.37 308.69
  L 724.33 310.96
  A 0.93 0.93 0.0 0 1 723.45 311.87
  L 718.41 312.11
  A 0.93 0.93 0.0 0 0 717.53 313.04
  Z"
/>
<path fill="#f8b500" d="
  M 745.99 328.24
  Q 745.23 333.19 740.12 332.43
  A 0.78 0.78 0.0 0 1 739.54 331.33
  L 749.84 309.22
  A 2.81 2.81 0.0 0 1 754.92 309.21
  L 765.39 331.35
  A 0.45 0.44 -22.9 0 1 765.14 331.96
  Q 760.26 333.67 759.06 328.92
  A 1.88 1.88 0.0 0 0 757.24 327.50
  L 746.85 327.51
  A 0.87 0.86 4.2 0 0 745.99 328.24
  Z
  M 748.67 322.65
  A 0.59 0.59 0.0 0 0 749.20 323.48
  L 755.57 323.53
  A 0.59 0.59 0.0 0 0 756.12 322.70
  L 752.98 315.43
  A 0.59 0.59 0.0 0 0 751.90 315.42
  L 748.67 322.65
  Z"
/>
<path fill="#f8b500" d="
  M 817.66 312.06
  L 812.55 311.83
  A 0.88 0.88 0.0 0 1 811.72 311.04
  L 811.49 308.71
  A 0.88 0.88 0.0 0 1 812.37 307.75
  L 829.44 307.75
  A 0.88 0.88 0.0 0 1 830.32 308.62
  L 830.33 310.94
  A 0.88 0.88 0.0 0 1 829.50 311.83
  L 824.20 312.08
  A 0.88 0.88 0.0 0 0 823.36 312.95
  L 823.21 331.33
  A 0.88 0.88 0.0 0 1 822.34 332.21
  L 819.40 332.26
  A 0.88 0.88 0.0 0 1 818.50 331.38
  L 818.50 312.94
  A 0.88 0.88 0.0 0 0 817.66 312.06
  Z"
/>
<path fill="#f8b500" d="
  M 928.22 328.26
  Q 927.63 333.00 922.87 332.43
  A 1.16 1.16 0.0 0 1 921.97 330.76
  Q 926.91 320.84 931.54 310.40
  C 932.75 307.66 935.93 306.14 937.47 309.51
  Q 942.51 320.47 947.77 331.47
  A 0.55 0.55 0.0 0 1 947.27 332.25
  L 943.31 332.25
  Q 942.89 332.25 942.70 331.87
  L 940.78 328.09
  Q 940.48 327.50 939.82 327.50
  L 929.08 327.51
  A 0.87 0.85 3.4 0 0 928.22 328.26
  Z
  M 930.89 322.66
  A 0.59 0.59 0.0 0 0 931.42 323.49
  L 937.93 323.50
  A 0.59 0.59 0.0 0 0 938.47 322.67
  L 935.23 315.53
  A 0.59 0.59 0.0 0 0 934.15 315.53
  L 930.89 322.66
  Z"
/>
<path fill="#f8b500" d="
  M 969.14 332.49
  A 0.86 0.86 0.0 0 1 968.25 331.63
  L 968.25 308.50
  A 0.71 0.71 0.0 0 1 968.93 307.79
  C 972.81 307.66 978.38 307.05 981.57 308.98
  C 985.52 311.38 986.68 316.48 984.25 320.34
  C 981.62 324.51 978.24 323.98 973.88 324.32
  Q 973.32 324.36 973.30 324.93
  L 973.13 331.63
  A 0.78 0.78 0.0 0 1 972.38 332.39
  L 969.14 332.49
  Z
  M 973.00 312.45
  L 973.02 319.39
  A 1.35 1.35 0.0 0 0 974.38 320.74
  L 974.99 320.74
  A 5.80 4.58 -0.2 0 0 980.77 316.14
  L 980.77 315.66
  A 5.80 4.58 -0.2 0 0 974.95 311.10
  L 974.34 311.10
  A 1.35 1.35 0.0 0 0 973.00 312.45
  Z"
/>
<path fill="#f8b500" d="
  M 1006.68 332.25
  A 0.44 0.44 0.0 0 1 1006.33 331.83
  L 1006.02 308.68
  A 0.92 0.92 0.0 0 1 1006.95 307.75
  C 1010.66 307.77 1015.91 307.17 1018.91 308.60
  C 1024.74 311.37 1024.55 320.35 1018.98 323.27
  C 1016.81 324.42 1014.07 324.29 1011.57 324.25
  A 0.56 0.56 0.0 0 0 1011.00 324.79
  C 1010.90 328.61 1012.86 333.44 1006.68 332.25
  Z
  M 1010.72 312.67
  L 1010.76 319.15
  A 1.60 1.60 0.0 0 0 1012.37 320.74
  L 1013.09 320.74
  A 5.46 4.18 -0.3 0 0 1018.52 316.53
  L 1018.52 315.21
  A 5.46 4.18 -0.3 0 0 1013.03 311.06
  L 1012.31 311.06
  A 1.60 1.60 0.0 0 0 1010.72 312.67
  Z"
/>
</svg>
