<?xml version="1.0" encoding="UTF-8" standalone="no"?>
<!DOCTYPE svg PUBLIC "-//W3C//DTD SVG 1.1//EN" "http://www.w3.org/Graphics/SVG/1.1/DTD/svg11.dtd">
<svg xmlns="http://www.w3.org/2000/svg" version="1.1" viewBox="0.00 0.00 500.00 500.00">
<path fill="#f8b500" d="
  M 194.56 310.03
  L 147.87 283.03
  A 2.21 2.21 0.0 0 0 145.67 283.03
  L 98.73 310.24
  A 1.33 1.32 56.3 0 1 97.01 309.89
  Q 95.36 307.69 96.93 306.77
  Q 120.61 292.84 144.33 278.97
  Q 144.75 278.72 144.75 278.24
  L 144.75 223.52
  Q 144.75 223.00 144.30 222.74
  L 97.00 195.39
  Q 96.51 195.10 96.02 195.39
  L 48.22 223.05
  A 0.79 0.78 59.5 0 1 47.15 222.77
  L 45.94 220.77
  Q 45.62 220.23 46.16 219.91
  L 94.27 192.09
  A 1.49 1.48 74.8 0 0 95.00 190.81
  L 95.00 134.06
  A 0.83 0.83 0.0 0 1 95.42 133.34
  L 146.01 104.06
  A 1.66 1.66 0.0 0 1 147.67 104.06
  L 196.03 131.93
  Q 197.06 132.53 198.09 131.93
  L 244.53 104.98
  A 1.45 1.44 -15.2 0 0 245.25 103.73
  L 245.25 47.09
  Q 245.25 46.48 245.78 46.17
  L 296.22 16.97
  A 2.07 2.07 0.0 0 1 298.28 16.97
  L 348.51 46.01
  A 1.49 1.48 15.2 0 1 349.25 47.29
  L 349.25 102.97
  A 2.56 2.55 15.1 0 0 350.53 105.18
  L 399.14 133.35
  Q 399.49 133.56 399.49 133.98
  L 399.51 190.01
  Q 399.51 191.71 400.98 192.56
  L 448.12 219.87
  Q 448.74 220.23 448.39 220.85
  L 447.18 223.03
  Q 446.88 223.57 446.34 223.26
  L 398.77 195.72
  A 2.04 2.03 44.6 0 0 396.74 195.73
  L 350.38 222.59
  A 1.75 1.75 0.0 0 0 349.52 224.13
  Q 350.02 250.04 349.51 276.25
  Q 349.46 278.91 351.65 280.17
  Q 374.95 293.55 398.25 306.92
  Q 398.89 307.28 398.54 307.93
  L 397.17 310.43
  Q 396.85 310.99 396.29 310.67
  L 348.34 282.92
  A 1.84 1.84 0.0 0 0 346.50 282.92
  L 299.96 309.89
  A 0.94 0.93 75.0 0 0 299.50 310.70
  L 299.50 365.49
  A 1.31 1.31 0.0 0 0 300.15 366.62
  L 347.82 394.21
  A 0.67 0.66 28.8 0 1 348.08 395.09
  L 346.99 397.22
  A 0.72 0.71 28.4 0 1 345.99 397.51
  L 298.68 370.08
  A 2.74 2.74 0.0 0 0 295.94 370.08
  Q 275.05 382.05 254.48 394.15
  C 251.82 395.71 248.99 395.89 248.99 399.74
  Q 249.01 427.36 249.00 454.64
  A 1.35 1.35 0.0 0 1 248.32 455.81
  L 198.60 484.60
  A 0.71 0.71 0.0 0 1 197.62 484.33
  L 196.46 482.20
  Q 196.19 481.69 196.69 481.41
  L 244.69 453.55
  A 1.14 1.14 0.0 0 0 245.25 452.57
  L 245.25 397.99
  A 0.92 0.90 -75.3 0 0 244.80 397.20
  L 197.58 369.84
  Q 196.98 369.48 196.37 369.84
  L 148.28 397.69
  Q 147.85 397.94 147.59 397.52
  L 146.12 395.24
  A 0.86 0.86 0.0 0 1 146.41 394.04
  L 194.55 366.22
  Q 195.00 365.96 195.00 365.44
  L 195.00 310.79
  Q 195.00 310.28 194.56 310.03
  Z
  M 249.00 103.60
  A 1.35 1.35 0.0 0 0 249.67 104.77
  L 296.51 131.95
  A 1.35 1.35 0.0 0 0 297.87 131.95
  L 344.83 104.74
  A 1.35 1.35 0.0 0 0 345.50 103.57
  L 345.50 49.53
  A 1.35 1.35 0.0 0 0 344.83 48.36
  L 297.94 21.18
  A 1.35 1.35 0.0 0 0 296.58 21.18
  L 249.67 48.38
  A 1.35 1.35 0.0 0 0 249.00 49.55
  L 249.00 103.60
  Z
  M 299.47 136.75
  L 299.51 191.08
  A 0.91 0.91 0.0 0 0 299.97 191.87
  L 346.94 219.14
  A 0.99 0.97 -44.5 0 0 347.93 219.14
  L 395.12 191.85
  Q 395.75 191.49 395.75 190.77
  L 395.75 136.81
  Q 395.75 136.38 395.44 136.08
  C 393.09 133.84 389.95 132.56 387.69 131.24
  Q 367.93 119.68 348.11 108.29
  Q 347.58 107.99 347.06 108.29
  L 300.22 135.44
  A 1.52 1.52 0.0 0 0 299.47 136.75
  Z
  M 257.75 114.43
  C 254.80 112.75 250.85 110.05 246.99 108.48
  A 1.08 1.07 -48.8 0 0 246.02 108.55
  L 200.22 135.02
  A 2.93 2.92 75.2 0 0 198.75 137.56
  L 198.75 190.99
  Q 198.75 191.51 199.20 191.77
  L 246.60 219.23
  A 0.99 0.99 0.0 0 0 247.58 219.23
  L 294.28 192.20
  A 1.43 1.43 0.0 0 0 295.00 190.96
  L 295.00 136.74
  A 1.44 1.42 -75.2 0 0 294.29 135.50
  Q 276.12 124.87 257.75 114.43
  Z
  M 245.00 224.06
  A 1.71 1.71 0.0 0 0 244.15 222.58
  L 197.80 195.74
  A 1.71 1.71 0.0 0 0 196.08 195.74
  L 149.60 222.62
  A 1.71 1.71 0.0 0 0 148.75 224.10
  L 148.75 277.75
  A 1.71 1.71 0.0 0 0 149.60 279.23
  L 196.08 306.17
  A 1.71 1.71 0.0 0 0 197.80 306.17
  L 244.15 279.34
  A 1.71 1.71 0.0 0 0 245.00 277.86
  L 245.00 224.06
  Z
  M 249.63 278.98
  L 296.58 306.18
  A 1.62 1.60 -44.9 0 0 298.19 306.17
  L 344.80 279.13
  Q 345.25 278.87 345.25 278.34
  L 345.25 223.53
  Q 345.25 223.00 344.79 222.74
  Q 325.24 211.40 305.66 200.13
  C 303.34 198.80 300.54 196.70 297.47 195.69
  Q 296.89 195.50 296.36 195.80
  L 249.80 222.72
  A 1.11 1.09 -15.3 0 0 249.25 223.67
  L 249.25 278.32
  Q 249.25 278.76 249.63 278.98
  Z"
/>
</svg>
