<?xml version="1.0" encoding="UTF-8" standalone="no"?>
<!DOCTYPE svg PUBLIC "-//W3C//DTD SVG 1.1//EN" "http://www.w3.org/Graphics/SVG/1.1/DTD/svg11.dtd">
<svg xmlns="http://www.w3.org/2000/svg" version="1.1" viewBox="0.00 0.00 836.00 836.00">
<path fill="#f8b500" d="
  M 262.61 100.64
  C 262.12 153.00 262.46 204.79 262.22 257.99
  Q 262.22 259.73 260.50 259.73
  L 103.62 259.74
  A 1.37 1.37 0.0 0 1 102.25 258.37
  L 102.25 100.00
  A 0.50 0.50 0.0 0 1 102.75 99.50
  L 261.48 99.50
  A 1.13 1.13 0.0 0 1 262.61 100.64
  Z"
/>
<rect fill="#f8b500" x="343.00" y="99.50" width="160.00" height="160.22" rx="1.35"/>
<rect fill="#f8b500" x="583.50" y="99.50" width="160.02" height="160.22" rx="1.08"/>
<path fill="#f8b500" d="
  M 261.35 340.01
  A 1.08 1.08 0.0 0 1 262.43 341.09
  L 262.50 498.99
  A 1.25 1.24 -90.0 0 1 261.26 500.24
  L 103.86 500.21
  A 1.61 1.60 -0.0 0 1 102.25 498.61
  L 102.25 340.75
  A 0.75 0.75 0.0 0 1 103.00 340.00
  L 261.35 340.01
  Z"
/>
<path fill="#f8b500" d="
  M 344.12 499.93
  A 1.13 1.13 0.0 0 1 343.00 498.80
  L 343.00 341.50
  Q 343.00 340.00 344.50 340.00
  L 501.68 340.00
  A 1.17 1.17 0.0 0 1 502.79 341.53
  C 502.48 342.47 502.99 343.71 502.99 344.62
  Q 503.00 419.69 502.95 494.75
  Q 502.95 497.11 502.67 499.47
  A 0.62 0.61 4.4 0 1 502.02 500.02
  C 499.79 499.90 497.61 500.23 495.55 500.23
  C 445.07 500.26 394.60 500.36 344.12 499.93
  Z"
/>
<rect fill="#f8b500" x="-80.04" y="-80.12" transform="translate(663.54,420.12) rotate(0.1)" width="160.08" height="160.24" rx="1.30"/>
<rect fill="#f8b500" x="102.25" y="580.75" width="160.22" height="160.00" rx="1.00"/>
<rect fill="#f8b500" x="343.00" y="580.75" width="160.00" height="160.00" rx="1.02"/>
</svg>
